<svg width="85" height="81" viewBox="0 0 85 81" fill="none" xmlns="http://www.w3.org/2000/svg">
<g id="Brutalist 03">
<path id="Vector" d="M40.8498 40.85C48.37 33.3298 48.37 21.137 40.8498 13.6168C33.3295 6.09658 21.1368 6.09658 13.6166 13.6168C6.09635 21.137 6.09635 33.3297 13.6166 40.85C21.1368 48.3702 33.3295 48.3702 40.8498 40.85Z" fill="#E47C1B"/>
<path id="Vector_2" d="M65.7433 46.4929C76.3786 46.4929 85.0002 37.8713 85.0002 27.2359C85.0002 16.6006 76.3786 7.979 65.7433 7.979C55.108 7.979 46.4863 16.6006 46.4863 27.2359C46.4863 37.8713 55.108 46.4929 65.7433 46.4929Z" fill="#E47C1B"/>
<path id="Vector_3" d="M27.2296 69.1191C37.8649 69.1191 46.4865 64.054 46.4865 57.8059C46.4865 51.5578 37.8649 46.4927 27.2296 46.4927C16.5943 46.4927 7.97266 51.5578 7.97266 57.8059C7.97266 64.054 16.5943 69.1191 27.2296 69.1191Z" fill="#E47C1B"/>
<path id="Vector_4" d="M65.7433 69.1191C76.3786 69.1191 85.0002 64.054 85.0002 57.8059C85.0002 51.5578 76.3786 46.4927 65.7433 46.4927C55.108 46.4927 46.4863 51.5578 46.4863 57.8059C46.4863 64.054 55.108 69.1191 65.7433 69.1191Z" fill="#E47C1B"/>
<path id="Vector_5" d="M27.2296 80.4323C37.8649 80.4323 46.4865 77.8998 46.4865 74.7757C46.4865 71.6517 37.8649 69.1191 27.2296 69.1191C16.5943 69.1191 7.97266 71.6517 7.97266 74.7757C7.97266 77.8998 16.5943 80.4323 27.2296 80.4323Z" fill="#E47C1B"/>
<path id="Vector_6" d="M65.7433 80.4323C76.3786 80.4323 85.0002 77.8998 85.0002 74.7757C85.0002 71.6517 76.3786 69.1191 65.7433 69.1191C55.108 69.1191 46.4863 71.6517 46.4863 74.7757C46.4863 77.8998 55.108 80.4323 65.7433 80.4323Z" fill="#E47C1B"/>
</g>
</svg>
