<svg width="85" height="85" viewBox="0 0 85 85" fill="none" xmlns="http://www.w3.org/2000/svg"
>
<path d="M85 15.9892C76.1693 15.9892 69.0108 8.83068 69.0108 0H63.75H58.4892C58.4892 8.83068 51.3307 15.9892 42.5 15.9892C33.6693 15.9892 26.5108 8.83068 26.5108 0H21.25H15.9892C15.9892 8.83068 8.83068 15.9892 0 15.9892V21.25V26.5108C8.83068 26.5108 15.9892 33.6693 15.9892 42.5C15.9892 51.3307 8.83068 58.4892 0 58.4892V63.75V69.0108C8.83068 69.0108 15.9892 76.1693 15.9892 85H21.25H26.5108C26.5108 76.1693 33.6693 69.0108 42.5 69.0108C51.3307 69.0108 58.4892 76.1693 58.4892 85H63.75H69.0108C69.0108 76.1693 76.1693 69.0108 85 69.0108V63.75V58.4892C76.1693 58.4892 69.0108 51.3307 69.0108 42.5C69.0108 33.6693 76.1693 26.5108 85 26.5108V21.25V15.9892ZM58.4892 42.5C58.4892 51.3307 51.3307 58.4892 42.5 58.4892C33.6693 58.4892 26.5108 51.3307 26.5108 42.5C26.5108 33.6693 33.6693 26.5108 42.5 26.5108C51.3307 26.5108 58.4892 33.6693 58.4892 42.5Z" fill="#E16C00"/>
</svg>
