<svg width="1848" height="586" viewBox="0 0 1848 586" fill="none" xmlns="http://www.w3.org/2000/svg">
<g clip-path="url(#clip0_1_8)">
<path d="M395.349 114.043V0H562.612V159.66H463.774L395.349 114.043Z" fill="white"/>
<path d="M159.66 0H22.8086H0V585.421H159.66V410.555H418.158V585.421H562.612V250.895H159.66V0Z" fill="white"/>
<path d="M1300.09 486.843H1634.62V418.158C1634.62 413.371 1632.36 408.865 1628.53 405.993L1577.85 367.979C1575.22 366.005 1572.01 364.938 1568.72 364.938H1512.97V326.923L1656.35 197.878C1661.94 192.853 1669.18 190.072 1676.7 190.072H1695.44V585.421H1847.5V53.2201L1817.08 22.8086H1596.6L1300.09 326.923V486.843Z" fill="white"/>
<path fill-rule="evenodd" clip-rule="evenodd" d="M646.243 266.1V585.421H1155.64L1208.86 516.995V83.6315L1155.64 22.8086H889.535L646.243 266.1ZM1056.8 174.866V433.363H798.3V342.129L950.358 174.866H1056.8Z" fill="white"/>
</g>
<defs>
<clipPath id="clip0_1_8">
<rect width="1848" height="586" fill="white"/>
</clipPath>
</defs>
</svg>