<svg width="1676" height="1308" viewBox="0 0 1676 1308" fill="none" xmlns="http://www.w3.org/2000/svg">
<g filter="url(#filter0_d_5_78)">
<g clip-path="url(#clip0_5_78)">
<rect width="1300" height="834" rx="30" transform="matrix(0 1 1 0 4 0)" fill="url(#paint0_linear_5_78)" shape-rendering="crispEdges"/>
<path d="M74.5381 1247.95H75.7675L76.4505 1247.68L76.8603 1247.32L77.3383 1246.59L77.6798 1245.69L77.8164 1244.97V1244.06L77.5432 1242.89L77.1335 1242.08L76.5188 1241.44L76.0407 1241.17L74.4698 1240.81L74.06 1240.45L73.8551 1240.18H73.7186L73.582 1239.82L72.9673 1238.82L72.4209 1238.1L71.6696 1237.47L70.85 1237.02L70.0305 1236.75L69.4841 1236.66H68.6645L67.4351 1236.84H66.6839L66.0692 1236.3L65.796 1235.93L65.7277 1235.75V1235.12L65.796 1234.76L66.479 1234.58H71.1915L72.2843 1234.94L73.0356 1235.57L73.582 1236.57L73.9917 1237.2L74.8113 1237.83L75.426 1238.1L76.3822 1238.19L81.0264 1238.1L81.6411 1237.83L81.9143 1237.38L82.1192 1236.57L82.1875 1235.93V1234.85L82.0509 1233.86L81.7094 1232.68L81.2313 1231.69L80.4801 1230.6L79.7288 1229.79L79.4556 1229.34V1226.36L79.1141 1225.27L78.7726 1224.73L77.953 1224.1L77.27 1223.83H76.3139L75.5626 1224.19L74.9479 1224.82L74.5381 1225.63L74.1966 1226.72V1227.89L74.4698 1228.89L74.8796 1229.61L75.5626 1230.33L76.1773 1230.69L77.4749 1230.97L78.5677 1231.69L79.3873 1232.5L79.7288 1232.86L80.2069 1233.86L80.3435 1234.4V1235.39L80.0703 1235.75L78.4311 1235.84L77.8847 1235.93H76.9969L75.9724 1235.66L75.2894 1235.3L74.3332 1234.4L73.7186 1233.58L73.1722 1232.59L72.6941 1232.32L72.3526 1232.23L65.7277 1232.14L65.113 1231.87L63.8153 1230.78L63.3373 1230.6L62.586 1230.69L61.6298 1231.33L60.9468 1232.32L60.537 1233.31L60.4688 1234.31L60.6736 1235.39L61.0834 1236.48L61.5615 1237.2L62.1762 1237.56L62.5177 1237.65H64.2934L64.9081 1237.92L65.2496 1238.28L65.5911 1238.92L65.9326 1239.1H68.1181L69.2109 1238.92L70.2354 1239.28L70.9866 1239.82L71.8745 1240.81L72.4892 1241.63L72.7624 1242.17V1243.16L72.6258 1243.97V1245.33L72.899 1246.23L73.3088 1247.05L73.7869 1247.59L74.5381 1247.95Z" fill="white"/>
<path d="M56.5873 1251.76H57.4436L58.2286 1251.48L58.8709 1251.02L59.4418 1250.19L59.7272 1249.27L59.7986 1248.9V1247.7L59.4418 1246.32L59.0136 1245.58L58.6568 1245.21L58.0145 1244.84L57.6577 1244.75L56.0878 1244.84L55.4455 1244.57L54.5892 1243.55L53.8756 1242.72L53.3047 1242.08L52.7338 1241.25L52.2342 1239.96L52.0915 1238.67V1236.36L52.2342 1235.44L53.0192 1234.61L53.6615 1233.69L54.0183 1232.68L54.0896 1232.31V1231.57L53.7328 1229.91V1229.27L54.0896 1228.81L54.5892 1228.62H67.0061L67.8624 1228.9L68.5047 1229.45L69.0042 1230.1L69.6465 1230.74L69.9319 1230.93H71.1451L71.7873 1230.65L72.5009 1230.1V1229.91L72.7864 1229.73L73.2859 1228.71L73.5 1227.79V1226.87L73.1432 1225.67L72.6437 1224.75L72.0014 1224.2L71.2164 1223.83H70.0033L69.1469 1224.38L68.0052 1225.86L67.4343 1226.13L58.4427 1226.22L53.7328 1226.32L53.1619 1226.69L52.3056 1227.7L51.4493 1228.16L50.2361 1228.53L49.6652 1228.9L49.1657 1229.54L48.7375 1230.46L48.5234 1231.39V1232.31L48.7375 1233.14L49.2371 1234.24L49.9507 1235.07L50.2361 1235.26L50.3075 1235.44L50.2361 1236.73L50.1648 1238.58L50.3075 1239.87L50.6643 1241.16L51.2352 1242.54L51.9488 1243.74L52.8765 1244.84L53.6615 1245.67L54.0896 1246.32L54.3037 1247.06L54.3751 1248.26V1249.27L54.7319 1250.38L55.2314 1251.02L56.0164 1251.57L56.5873 1251.76Z" fill="white"/>
<path d="M62.937 1255.57L63.6912 1255.47L64.651 1254.83L65.4738 1253.62L65.8166 1253.16L65.9537 1253.07H82.203L83.3685 1252.88L84.3284 1252.51L85.014 1252.14L86.111 1251.21L87.0023 1250.1V1249.92H87.1395L87.688 1248.99L88.785 1247.6L89.2649 1246.95L89.7448 1246.21L90.6361 1245.01L91.1161 1244.27L91.8017 1243.15L92.1445 1242.32L92.2131 1241.21L92.8987 1240.47L93.4472 1239.82L93.9957 1238.52L94.1328 1237.78V1237.04L93.8586 1236.02L93.3786 1235.1L92.7616 1234.35L92.2131 1234.08L91.8017 1233.98H91.1846L90.3619 1234.26L89.6763 1234.82L89.1963 1235.56L88.9221 1236.49L88.785 1237.32L88.8535 1238.15L89.0592 1239.08L89.4706 1239.91L90.1562 1240.75L90.2933 1241.12V1241.77L89.7448 1242.78L85.014 1249.18L84.6027 1249.82L83.9856 1250.38L83.3685 1250.56H67.5307L65.8166 1250.47L64.5825 1248.8L64.1025 1248.43L63.6226 1248.25H62.7313L61.9771 1248.53L61.4286 1249.08L60.8801 1249.92L60.4688 1251.12V1252.6L60.743 1253.53L61.2229 1254.36L61.7714 1255.01L62.3199 1255.38L62.937 1255.57Z" fill="white"/>
<path d="M80.9688 1247.95H82.3047L82.9375 1247.68L83.6406 1246.87L84.1328 1245.89L84.2734 1245.44V1242.92L84.5547 1242.39L85.1875 1241.49L85.8906 1240.59L86.5234 1239.34L86.7344 1238.53V1230.81L86.875 1229.83L87.3672 1228.75L88.4219 1227.4L88.7031 1226.6V1225.7L88.4219 1224.71L87.7891 1223.46L87.1562 1222.74L86.5938 1222.56H85.8203L84.6953 1222.83L84.1328 1223.19L83.5703 1223.9L83.2891 1224.71L83.2188 1225.25V1226.87L83.5 1227.4L83.9922 1228.03L84.6953 1229.29L84.9062 1230.18V1237.63L84.625 1238.62L84.2031 1239.52L83.3594 1240.5L82.6562 1241.04L82.1641 1241.13L81.25 1241.04L80.3359 1241.4L79.7734 1241.94L79.2812 1242.66L79 1243.46L78.9297 1243.91V1245.26L79.1406 1246.15L79.5625 1246.96L80.1953 1247.59L80.9688 1247.95Z" fill="white"/>
<path d="M62.9486 1226.37L63.913 1226.17L64.6018 1225.69L65.1529 1225.01L65.6351 1223.66L65.7728 1222.78L65.8417 1220.75L66.0484 1220.27L66.875 1220.07H72.4546L73.3501 1220.27L74.1767 1220.85L74.6589 1221.43L75.1411 1222.2L75.761 1222.49H76.5876L77.4831 1222.11L78.0342 1221.62L78.5853 1220.75L78.9297 1219.59V1218.04L78.5853 1216.88L78.1031 1216.1L77.1387 1215.33L76.5876 1215.04L75.761 1214.94L75.2099 1215.23L74.7966 1215.62L74.1078 1216.59L73.8323 1217.07L73.3501 1217.46L71.628 1217.56H66.5994L65.8417 1217.65L65.2906 1217.94L64.8773 1218.43L64.5329 1219.01H63.8441L63.3619 1218.81L62.5353 1218.91L61.6398 1219.4L61.2265 1219.78L60.9509 1220.27L60.6065 1221.43L60.4688 1222.11V1223.17L60.6754 1224.14L61.0887 1225.01L61.7087 1225.79L62.4664 1226.27L62.9486 1226.37Z" fill="white"/>
<path d="M90.7105 1232.71H91.8512L92.7068 1232.44L93.3485 1231.8L93.8476 1230.71L94.1328 1229.52V1228.8L93.8476 1227.88L93.3485 1227.06L92.7781 1226.33L92.2077 1225.7L92.0651 1225.42V1224.24L92.1364 1223.6L91.9225 1222.96L91.3522 1221.96L90.7105 1221.05H90.5679V1220.87L88.7854 1218.59L88.0724 1217.95L87.2881 1217.49H85.4343L85.2917 1217.04L84.864 1216.22L84.151 1215.4L83.2954 1214.94H82.3685L81.5842 1215.31L80.9425 1215.85L80.4434 1216.49L80.1582 1217.22L80.0156 1217.86V1219.04L80.2295 1219.95L80.6573 1220.87L81.2277 1221.5L81.8694 1221.87L82.1546 1221.96H82.7963L83.8658 1221.69L84.2936 1221.41L84.6501 1221.05L85.0065 1220.59V1220.41L86.0047 1219.77H86.7177L87.3594 1220.23L88.0724 1221.05L88.9993 1222.14L89.7836 1223.33L90.1401 1224.06L90.2114 1224.33V1225.42L89.7836 1226.33L89.1419 1227.34L88.8567 1227.98L88.6428 1228.98V1229.98L88.8567 1230.89L89.2132 1231.62L89.5697 1232.08L90.1401 1232.53L90.7105 1232.71Z" fill="white"/>
<path d="M68.1427 1247.95H69.0115L69.7354 1247.68L70.4594 1247.05V1246.88H70.6042L71.1109 1245.89L71.3281 1245.17V1243.74L71.0385 1242.76L70.5318 1241.95L69.8802 1241.41L69.0839 1240.97H67.9979L67.3464 1241.32L66.3328 1242.22L65.5365 1242.76L64.5953 1243.12H63.2922L62.2062 1242.67L61.4823 1241.95L60.8307 1241.15L60.324 1240.43L59.7448 1239.71L59.3828 1238.82L59.4552 1237.65L59.5276 1237.03L59.238 1235.86L58.876 1235.15L58.2969 1234.52L57.4281 1234.07L57.1385 1233.98H56.125L55.3286 1234.34L54.7495 1234.88L54.2427 1235.77L54.0255 1236.4L53.9531 1236.94V1237.83L54.0979 1238.73L54.3875 1239.44L54.7495 1239.98L55.5458 1240.61L56.0526 1240.79L57.8625 1240.88L58.2969 1241.24L59.6 1242.85L60.1068 1243.56L60.7583 1244.37L61.4823 1244.91L62.4958 1245.35L62.9302 1245.44H64.3781L65.2469 1245.35L65.7536 1245.71L66.4052 1246.7L66.9844 1247.41L67.5635 1247.77L68.1427 1247.95Z" fill="white"/>
<path d="M79.1765 1214.94H79.7293L80.4204 1214.67L81.1114 1214.14L81.5952 1213.52L81.9407 1212.8L82.148 1211.82L82.0789 1210.84V1210.04L82.2862 1209.51L82.9773 1208.62L83.5301 1207.99L83.9447 1207.19L84.3594 1205.68V1203L84.2212 1200.42L84.083 1199.89L83.8065 1199.71H83.0464L82.7009 1199.89L82.5626 1200.24L82.4935 1204.87L82.3553 1205.85L81.9407 1206.75L81.3879 1207.37L80.6277 1207.9L80.3513 1207.99L78.831 1208.08L78.0708 1208.44L77.518 1209.06L77.0342 1210.04L76.7578 1211.02V1212.18L76.9651 1212.98L77.5871 1213.87L78.1399 1214.5L78.831 1214.85L79.1765 1214.94Z" fill="white"/>
<path d="M210.084 1245.41H218.32L225.946 1245.05L228.996 1243.96L230.827 1241.42L231.437 1239.61V1236.34L230.522 1234.17L229.912 1233.8L230.217 1232.35L232.047 1229.09V1225.82L230.827 1222.92L228.691 1220.74L226.861 1220.02H204.898V1235.25L205.203 1235.62L225.031 1235.98L224.726 1237.43L223.811 1237.79L205.203 1238.16L206.424 1240.69L209.169 1245.05L210.084 1245.41Z" fill="white"/>
<path d="M155.411 1245.41H157.272L158.824 1244.31L161.306 1239.57L165.339 1230.8L165.65 1230.07L166.891 1235.91L168.752 1244.31L170.614 1245.04L175.578 1244.68L175.268 1241.76L171.234 1226.05L169.373 1220.58L167.821 1219.12L165.96 1218.75L163.478 1220.21L159.754 1227.15L156.342 1235.18L155.721 1235.55L155.1 1233.36L151.998 1226.78L148.895 1220.58L147.654 1219.12H144.551L142.69 1220.21L141.449 1223.86L138.967 1234.45L136.795 1243.58L136.484 1244.68H143L143.931 1242.85L146.723 1230.8V1229.71H147.344L147.654 1231.53L150.136 1237.74L152.929 1243.58L154.48 1245.04L155.411 1245.41Z" fill="white"/>
<path d="M251.18 1245.41L254.05 1245.04L255.644 1243.58L260.428 1232.99L261.384 1230.8V1230.07L262.022 1230.44L265.211 1244.31L265.53 1244.68H272.227L270.951 1238.84L267.124 1224.59L265.53 1220.58L263.617 1218.75H261.703L259.79 1220.21L257.558 1223.86L253.412 1232.99L252.456 1234.82V1235.55L251.499 1234.45L246.716 1224.23L244.483 1220.58L243.208 1219.12L240.657 1218.75L238.743 1219.85L237.468 1222.77L235.236 1231.17L232.047 1243.58V1244.68L238.425 1245.04L239.381 1243.22L241.932 1232.63L242.57 1230.07L247.035 1239.57L248.629 1243.22L250.223 1245.04L251.18 1245.41Z" fill="white"/>
<path d="M177.75 1244.14H202.727L202.102 1242.33L198.668 1237.25H184.931L185.243 1235.07L201.166 1234.71L200.853 1233.26L198.043 1228.91L197.107 1228.54H185.243L184.931 1225.64H202.414L201.79 1223.83L199.917 1220.56L198.98 1219.11L194.921 1218.75L177.75 1219.11V1244.14Z" fill="white"/>
<path d="M287.916 1244.14H309.136L310.696 1243.44L311.008 1242.74V1239.25L309.448 1237.5L306.327 1234.7L302.271 1231.21L298.526 1227.71L297.278 1226.31H311.32L311.008 1224.56L309.136 1221.07L308.2 1220.02H286.356L285.108 1221.42L284.796 1224.56L286.356 1226.31L290.725 1230.16L294.158 1233.65L297.59 1236.1L298.838 1236.8L299.15 1237.5H284.484L284.172 1238.2L286.668 1242.04L287.916 1244.14Z" fill="white"/>
<path d="M274.398 1244.14H280.914V1220.02H274.398V1244.14Z" fill="white"/>
<path d="M118.932 1241.6H120.195V1237.93L117.984 1236.26L111.35 1233.25L109.454 1232.25L115.457 1228.91L119.563 1226.57L120.195 1225.9V1222.56L118.3 1223.23L109.454 1227.24L105.032 1229.57L102.82 1231.58L103.136 1233.25L104.716 1234.59L111.982 1237.93L118.932 1241.6Z" fill="white"/>
<path d="M312.406 1241.6L314.015 1241.26L323.024 1236.5L328.816 1234.12L329.781 1232.76V1231.06L328.172 1229.7L323.024 1226.98L313.372 1222.56H312.406V1225.96L314.015 1227.32L320.128 1230.38L323.024 1232.08L318.198 1234.46L312.728 1237.18L312.406 1237.52V1241.6Z" fill="white"/>
<path d="M134.867 1245.41L136.484 1245.06L135.837 1242.99L130.338 1229.83L126.78 1221.87L125.163 1219.1L124.839 1218.75H121.281L122.252 1221.87L125.163 1228.79L129.045 1237.1L131.956 1244.37L132.603 1245.06L134.867 1245.41Z" fill="white"/>
<path d="M539 651.91H622.722V673.979C622.722 674.171 622.646 674.352 622.514 674.466L607.639 687.54C607.547 687.62 607.439 687.662 607.326 687.662H592.278V698.811L630.036 738.633C630.228 738.835 630.474 738.946 630.731 738.946H637.945V623H676V779.081L668.388 788H613.209L539 698.811V651.91Z" fill="#E16C00" fill-opacity="0.4"/>
<path d="M574 613.91H657.722V635.979C657.722 636.171 657.646 636.352 657.514 636.466L642.639 649.54C642.547 649.62 642.439 649.662 642.326 649.662H627.278V660.811L665.036 700.633C665.228 700.835 665.474 700.946 665.731 700.946H672.945V585H711V741.081L703.388 750H648.209L574 660.811V613.91Z" fill="#E16C00"/>
<path fill-rule="evenodd" clip-rule="evenodd" d="M382.001 899.649V806H510.568L524.001 826.068V953.162L510.568 971H443.406L382.001 899.649ZM485.622 926.405V850.595H420.379V877.352L458.757 926.405H485.622Z" fill="#E16C00" fill-opacity="0.4"/>
<path fill-rule="evenodd" clip-rule="evenodd" d="M432 857.649V764H560.567L574 784.068V911.162L560.567 929H493.405L432 857.649ZM535.621 884.405V808.595H470.378V835.352L508.756 884.405H535.621Z" fill="#E16C00"/>
<path d="M302 1105.14V1138H344V1092H319.182L302 1105.14Z" fill="#E16C00" fill-opacity="0.4"/>
<path d="M243.013 1019.28H242.513V1018.78V968.5H203.5V1137.5H208.716H242.513V1065.14V1064.64H243.013H343.5V968.5H308.297V1018.78V1019.28H307.797H243.013Z" fill="#E16C00" fill-opacity="0.4" stroke="black"/>
<path d="M358 1066.14V1099H400V1053H375.182L358 1066.14Z" fill="#E16C00"/>
<path d="M299.013 1099H264.716H259V929H299.013V979.779H363.797V929H400V1026.14H299.013V1099Z" fill="#E16C00"/>
</g>
</g>
<g filter="url(#filter1_d_5_78)">
<g clip-path="url(#clip1_5_78)">
<rect width="1300" height="834" rx="30" transform="matrix(0 1 1 0 838 0)" fill="url(#paint1_linear_5_78)" shape-rendering="crispEdges"/>
<path d="M908.538 1247.95H909.767L910.45 1247.68L910.86 1247.32L911.338 1246.59L911.68 1245.69L911.816 1244.97V1244.06L911.543 1242.89L911.133 1242.08L910.519 1241.44L910.041 1241.17L908.47 1240.81L908.06 1240.45L907.855 1240.18H907.719L907.582 1239.82L906.967 1238.82L906.421 1238.1L905.67 1237.47L904.85 1237.02L904.03 1236.75L903.484 1236.66H902.665L901.435 1236.84H900.684L900.069 1236.3L899.796 1235.93L899.728 1235.75V1235.12L899.796 1234.76L900.479 1234.58H905.192L906.284 1234.94L907.036 1235.57L907.582 1236.57L907.992 1237.2L908.811 1237.83L909.426 1238.1L910.382 1238.19L915.026 1238.1L915.641 1237.83L915.914 1237.38L916.119 1236.57L916.187 1235.93V1234.85L916.051 1233.86L915.709 1232.68L915.231 1231.69L914.48 1230.6L913.729 1229.79L913.456 1229.34V1226.36L913.114 1225.27L912.773 1224.73L911.953 1224.1L911.27 1223.83H910.314L909.563 1224.19L908.948 1224.82L908.538 1225.63L908.197 1226.72V1227.89L908.47 1228.89L908.88 1229.61L909.563 1230.33L910.177 1230.69L911.475 1230.97L912.568 1231.69L913.387 1232.5L913.729 1232.86L914.207 1233.86L914.343 1234.4V1235.39L914.07 1235.75L912.431 1235.84L911.885 1235.93H910.997L909.972 1235.66L909.289 1235.3L908.333 1234.4L907.719 1233.58L907.172 1232.59L906.694 1232.32L906.353 1232.23L899.728 1232.14L899.113 1231.87L897.815 1230.78L897.337 1230.6L896.586 1230.69L895.63 1231.33L894.947 1232.32L894.537 1233.31L894.469 1234.31L894.674 1235.39L895.083 1236.48L895.562 1237.2L896.176 1237.56L896.518 1237.65H898.293L898.908 1237.92L899.25 1238.28L899.591 1238.92L899.933 1239.1H902.118L903.211 1238.92L904.235 1239.28L904.987 1239.82L905.875 1240.81L906.489 1241.63L906.762 1242.17V1243.16L906.626 1243.97V1245.33L906.899 1246.23L907.309 1247.05L907.787 1247.59L908.538 1247.95Z" fill="white"/>
<path d="M890.587 1251.76H891.444L892.229 1251.48L892.871 1251.02L893.442 1250.19L893.727 1249.27L893.799 1248.9V1247.7L893.442 1246.32L893.014 1245.58L892.657 1245.21L892.015 1244.84L891.658 1244.75L890.088 1244.84L889.446 1244.57L888.589 1243.55L887.876 1242.72L887.305 1242.08L886.734 1241.25L886.234 1239.96L886.092 1238.67V1236.36L886.234 1235.44L887.019 1234.61L887.661 1233.69L888.018 1232.68L888.09 1232.31V1231.57L887.733 1229.91V1229.27L888.09 1228.81L888.589 1228.62H901.006L901.862 1228.9L902.505 1229.45L903.004 1230.1L903.646 1230.74L903.932 1230.93H905.145L905.787 1230.65L906.501 1230.1V1229.91L906.786 1229.73L907.286 1228.71L907.5 1227.79V1226.87L907.143 1225.67L906.644 1224.75L906.001 1224.2L905.216 1223.83H904.003L903.147 1224.38L902.005 1225.86L901.434 1226.13L892.443 1226.22L887.733 1226.32L887.162 1226.69L886.306 1227.7L885.449 1228.16L884.236 1228.53L883.665 1228.9L883.166 1229.54L882.738 1230.46L882.523 1231.39V1232.31L882.738 1233.14L883.237 1234.24L883.951 1235.07L884.236 1235.26L884.307 1235.44L884.236 1236.73L884.165 1238.58L884.307 1239.87L884.664 1241.16L885.235 1242.54L885.949 1243.74L886.876 1244.84L887.661 1245.67L888.09 1246.32L888.304 1247.06L888.375 1248.26V1249.27L888.732 1250.38L889.231 1251.02L890.016 1251.57L890.587 1251.76Z" fill="white"/>
<path d="M896.937 1255.57L897.691 1255.47L898.651 1254.83L899.474 1253.62L899.817 1253.16L899.954 1253.07H916.203L917.369 1252.88L918.328 1252.51L919.014 1252.14L920.111 1251.21L921.002 1250.1V1249.92H921.139L921.688 1248.99L922.785 1247.6L923.265 1246.95L923.745 1246.21L924.636 1245.01L925.116 1244.27L925.802 1243.15L926.145 1242.32L926.213 1241.21L926.899 1240.47L927.447 1239.82L927.996 1238.52L928.133 1237.78V1237.04L927.859 1236.02L927.379 1235.1L926.762 1234.35L926.213 1234.08L925.802 1233.98H925.185L924.362 1234.26L923.676 1234.82L923.196 1235.56L922.922 1236.49L922.785 1237.32L922.854 1238.15L923.059 1239.08L923.471 1239.91L924.156 1240.75L924.293 1241.12V1241.77L923.745 1242.78L919.014 1249.18L918.603 1249.82L917.986 1250.38L917.369 1250.56H901.531L899.817 1250.47L898.582 1248.8L898.103 1248.43L897.623 1248.25H896.731L895.977 1248.53L895.429 1249.08L894.88 1249.92L894.469 1251.12V1252.6L894.743 1253.53L895.223 1254.36L895.771 1255.01L896.32 1255.38L896.937 1255.57Z" fill="white"/>
<path d="M914.969 1247.95H916.305L916.938 1247.68L917.641 1246.87L918.133 1245.89L918.273 1245.44V1242.92L918.555 1242.39L919.188 1241.49L919.891 1240.59L920.523 1239.34L920.734 1238.53V1230.81L920.875 1229.83L921.367 1228.75L922.422 1227.4L922.703 1226.6V1225.7L922.422 1224.71L921.789 1223.46L921.156 1222.74L920.594 1222.56H919.82L918.695 1222.83L918.133 1223.19L917.57 1223.9L917.289 1224.71L917.219 1225.25V1226.87L917.5 1227.4L917.992 1228.03L918.695 1229.29L918.906 1230.18V1237.63L918.625 1238.62L918.203 1239.52L917.359 1240.5L916.656 1241.04L916.164 1241.13L915.25 1241.04L914.336 1241.4L913.773 1241.94L913.281 1242.66L913 1243.46L912.93 1243.91V1245.26L913.141 1246.15L913.562 1246.96L914.195 1247.59L914.969 1247.95Z" fill="white"/>
<path d="M896.949 1226.37L897.913 1226.17L898.602 1225.69L899.153 1225.01L899.635 1223.66L899.773 1222.78L899.842 1220.75L900.048 1220.27L900.875 1220.07H906.455L907.35 1220.27L908.177 1220.85L908.659 1221.43L909.141 1222.2L909.761 1222.49H910.588L911.483 1222.11L912.034 1221.62L912.585 1220.75L912.93 1219.59V1218.04L912.585 1216.88L912.103 1216.1L911.139 1215.33L910.588 1215.04L909.761 1214.94L909.21 1215.23L908.797 1215.62L908.108 1216.59L907.832 1217.07L907.35 1217.46L905.628 1217.56H900.599L899.842 1217.65L899.291 1217.94L898.877 1218.43L898.533 1219.01H897.844L897.362 1218.81L896.535 1218.91L895.64 1219.4L895.226 1219.78L894.951 1220.27L894.607 1221.43L894.469 1222.11V1223.17L894.675 1224.14L895.089 1225.01L895.709 1225.79L896.466 1226.27L896.949 1226.37Z" fill="white"/>
<path d="M924.71 1232.71H925.851L926.707 1232.44L927.349 1231.8L927.848 1230.71L928.133 1229.52V1228.8L927.848 1227.88L927.349 1227.06L926.778 1226.33L926.208 1225.7L926.065 1225.42V1224.24L926.136 1223.6L925.923 1222.96L925.352 1221.96L924.71 1221.05H924.568V1220.87L922.785 1218.59L922.072 1217.95L921.288 1217.49H919.434L919.292 1217.04L918.864 1216.22L918.151 1215.4L917.295 1214.94H916.368L915.584 1215.31L914.943 1215.85L914.443 1216.49L914.158 1217.22L914.016 1217.86V1219.04L914.23 1219.95L914.657 1220.87L915.228 1221.5L915.869 1221.87L916.155 1221.96H916.796L917.866 1221.69L918.294 1221.41L918.65 1221.05L919.007 1220.59V1220.41L920.005 1219.77H920.718L921.359 1220.23L922.072 1221.05L922.999 1222.14L923.784 1223.33L924.14 1224.06L924.211 1224.33V1225.42L923.784 1226.33L923.142 1227.34L922.857 1227.98L922.643 1228.98V1229.98L922.857 1230.89L923.213 1231.62L923.57 1232.08L924.14 1232.53L924.71 1232.71Z" fill="white"/>
<path d="M902.143 1247.95H903.011L903.735 1247.68L904.459 1247.05V1246.88H904.604L905.111 1245.89L905.328 1245.17V1243.74L905.039 1242.76L904.532 1241.95L903.88 1241.41L903.084 1240.97H901.998L901.346 1241.32L900.333 1242.22L899.536 1242.76L898.595 1243.12H897.292L896.206 1242.67L895.482 1241.95L894.831 1241.15L894.324 1240.43L893.745 1239.71L893.383 1238.82L893.455 1237.65L893.528 1237.03L893.238 1235.86L892.876 1235.15L892.297 1234.52L891.428 1234.07L891.139 1233.98H890.125L889.329 1234.34L888.749 1234.88L888.243 1235.77L888.026 1236.4L887.953 1236.94V1237.83L888.098 1238.73L888.387 1239.44L888.749 1239.98L889.546 1240.61L890.053 1240.79L891.862 1240.88L892.297 1241.24L893.6 1242.85L894.107 1243.56L894.758 1244.37L895.482 1244.91L896.496 1245.35L896.93 1245.44H898.378L899.247 1245.35L899.754 1245.71L900.405 1246.7L900.984 1247.41L901.564 1247.77L902.143 1247.95Z" fill="white"/>
<path d="M913.176 1214.94H913.729L914.42 1214.67L915.111 1214.14L915.595 1213.52L915.941 1212.8L916.148 1211.82L916.079 1210.84V1210.04L916.286 1209.51L916.977 1208.62L917.53 1207.99L917.945 1207.19L918.359 1205.68V1203L918.221 1200.42L918.083 1199.89L917.807 1199.71H917.046L916.701 1199.89L916.563 1200.24L916.494 1204.87L916.355 1205.85L915.941 1206.75L915.388 1207.37L914.628 1207.9L914.351 1207.99L912.831 1208.08L912.071 1208.44L911.518 1209.06L911.034 1210.04L910.758 1211.02V1212.18L910.965 1212.98L911.587 1213.87L912.14 1214.5L912.831 1214.85L913.176 1214.94Z" fill="white"/>
<path d="M1044.08 1245.41H1052.32L1059.95 1245.05L1063 1243.96L1064.83 1241.42L1065.44 1239.61V1236.34L1064.52 1234.17L1063.91 1233.8L1064.22 1232.35L1066.05 1229.09V1225.82L1064.83 1222.92L1062.69 1220.74L1060.86 1220.02H1038.9V1235.25L1039.2 1235.62L1059.03 1235.98L1058.73 1237.43L1057.81 1237.79L1039.2 1238.16L1040.42 1240.69L1043.17 1245.05L1044.08 1245.41Z" fill="white"/>
<path d="M989.411 1245.41H991.272L992.824 1244.31L995.306 1239.57L999.339 1230.8L999.65 1230.07L1000.89 1235.91L1002.75 1244.31L1004.61 1245.04L1009.58 1244.68L1009.27 1241.76L1005.23 1226.05L1003.37 1220.58L1001.82 1219.12L999.96 1218.75L997.478 1220.21L993.754 1227.15L990.342 1235.18L989.721 1235.55L989.1 1233.36L985.998 1226.78L982.895 1220.58L981.654 1219.12H978.551L976.69 1220.21L975.449 1223.86L972.967 1234.45L970.795 1243.58L970.484 1244.68H977L977.931 1242.85L980.723 1230.8V1229.71H981.344L981.654 1231.53L984.136 1237.74L986.929 1243.58L988.48 1245.04L989.411 1245.41Z" fill="white"/>
<path d="M1085.18 1245.41L1088.05 1245.04L1089.64 1243.58L1094.43 1232.99L1095.38 1230.8V1230.07L1096.02 1230.44L1099.21 1244.31L1099.53 1244.68H1106.23L1104.95 1238.84L1101.12 1224.59L1099.53 1220.58L1097.62 1218.75H1095.7L1093.79 1220.21L1091.56 1223.86L1087.41 1232.99L1086.46 1234.82V1235.55L1085.5 1234.45L1080.72 1224.23L1078.48 1220.58L1077.21 1219.12L1074.66 1218.75L1072.74 1219.85L1071.47 1222.77L1069.24 1231.17L1066.05 1243.58V1244.68L1072.42 1245.04L1073.38 1243.22L1075.93 1232.63L1076.57 1230.07L1081.03 1239.57L1082.63 1243.22L1084.22 1245.04L1085.18 1245.41Z" fill="white"/>
<path d="M1011.75 1244.14H1036.73L1036.1 1242.33L1032.67 1237.25H1018.93L1019.24 1235.07L1035.17 1234.71L1034.85 1233.26L1032.04 1228.91L1031.11 1228.54H1019.24L1018.93 1225.64H1036.41L1035.79 1223.83L1033.92 1220.56L1032.98 1219.11L1028.92 1218.75L1011.75 1219.11V1244.14Z" fill="white"/>
<path d="M1121.92 1244.14H1143.14L1144.7 1243.44L1145.01 1242.74V1239.25L1143.45 1237.5L1140.33 1234.7L1136.27 1231.21L1132.53 1227.71L1131.28 1226.31H1145.32L1145.01 1224.56L1143.14 1221.07L1142.2 1220.02H1120.36L1119.11 1221.42L1118.8 1224.56L1120.36 1226.31L1124.72 1230.16L1128.16 1233.65L1131.59 1236.1L1132.84 1236.8L1133.15 1237.5H1118.48L1118.17 1238.2L1120.67 1242.04L1121.92 1244.14Z" fill="white"/>
<path d="M1108.4 1244.14H1114.91V1220.02H1108.4V1244.14Z" fill="white"/>
<path d="M952.932 1241.6H954.195V1237.93L951.984 1236.26L945.35 1233.25L943.454 1232.25L949.457 1228.91L953.563 1226.57L954.195 1225.9V1222.56L952.3 1223.23L943.454 1227.24L939.032 1229.57L936.82 1231.58L937.136 1233.25L938.716 1234.59L945.982 1237.93L952.932 1241.6Z" fill="white"/>
<path d="M1146.41 1241.6L1148.02 1241.26L1157.02 1236.5L1162.82 1234.12L1163.78 1232.76V1231.06L1162.17 1229.7L1157.02 1226.98L1147.37 1222.56H1146.41V1225.96L1148.02 1227.32L1154.13 1230.38L1157.02 1232.08L1152.2 1234.46L1146.73 1237.18L1146.41 1237.52V1241.6Z" fill="white"/>
<path d="M968.867 1245.41L970.484 1245.06L969.837 1242.99L964.338 1229.83L960.78 1221.87L959.163 1219.1L958.839 1218.75H955.281L956.252 1221.87L959.163 1228.79L963.045 1237.1L965.956 1244.37L966.603 1245.06L968.867 1245.41Z" fill="white"/>
<path d="M1373 651.91H1456.72V673.979C1456.72 674.171 1456.65 674.352 1456.51 674.466L1441.64 687.54C1441.55 687.62 1441.44 687.662 1441.33 687.662H1426.28V698.811L1464.04 738.633C1464.23 738.835 1464.47 738.946 1464.73 738.946H1471.94V623H1510V779.081L1502.39 788H1447.21L1373 698.811V651.91Z" fill="#E16C00" fill-opacity="0.4"/>
<path d="M1408 613.91H1491.72V635.979C1491.72 636.171 1491.65 636.352 1491.51 636.466L1476.64 649.54C1476.55 649.62 1476.44 649.662 1476.33 649.662H1461.28V660.811L1499.04 700.633C1499.23 700.835 1499.47 700.946 1499.73 700.946H1506.94V585H1545V741.081L1537.39 750H1482.21L1408 660.811V613.91Z" fill="#E16C00"/>
<path fill-rule="evenodd" clip-rule="evenodd" d="M1216 899.649V806H1344.57L1358 826.068V953.162L1344.57 971H1277.41L1216 899.649ZM1319.62 926.405V850.595H1254.38V877.352L1292.76 926.405H1319.62Z" fill="#E16C00" fill-opacity="0.4"/>
<path fill-rule="evenodd" clip-rule="evenodd" d="M1266 857.649V764H1394.57L1408 784.068V911.162L1394.57 929H1327.41L1266 857.649ZM1369.62 884.405V808.595H1304.38V835.352L1342.76 884.405H1369.62Z" fill="#E16C00"/>
<path d="M1136 1105.14V1138H1178V1092H1153.18L1136 1105.14Z" fill="#E16C00" fill-opacity="0.4"/>
<path d="M1077.01 1019.28H1076.51V1018.78V968.5H1037.5V1137.5H1042.72H1076.51V1065.14V1064.64H1077.01H1177.5V968.5H1142.3V1018.78V1019.28H1141.8H1077.01Z" fill="#E16C00" fill-opacity="0.4" stroke="black"/>
<path d="M1192 1066.14V1099H1234V1053H1209.18L1192 1066.14Z" fill="#E16C00"/>
<path d="M1133.01 1099H1098.72H1093V929H1133.01V979.779H1197.8V929H1234V1026.14H1133.01V1099Z" fill="#E16C00"/>
</g>
</g>
<defs>
<filter id="filter0_d_5_78" x="0" y="0" width="842" height="1308" filterUnits="userSpaceOnUse" color-interpolation-filters="sRGB">
<feFlood flood-opacity="0" result="BackgroundImageFix"/>
<feColorMatrix in="SourceAlpha" type="matrix" values="0 0 0 0 0 0 0 0 0 0 0 0 0 0 0 0 0 0 127 0" result="hardAlpha"/>
<feOffset dy="4"/>
<feGaussianBlur stdDeviation="2"/>
<feComposite in2="hardAlpha" operator="out"/>
<feColorMatrix type="matrix" values="0 0 0 0 0 0 0 0 0 0 0 0 0 0 0 0 0 0 0.25 0"/>
<feBlend mode="normal" in2="BackgroundImageFix" result="effect1_dropShadow_5_78"/>
<feBlend mode="normal" in="SourceGraphic" in2="effect1_dropShadow_5_78" result="shape"/>
</filter>
<filter id="filter1_d_5_78" x="834" y="0" width="842" height="1308" filterUnits="userSpaceOnUse" color-interpolation-filters="sRGB">
<feFlood flood-opacity="0" result="BackgroundImageFix"/>
<feColorMatrix in="SourceAlpha" type="matrix" values="0 0 0 0 0 0 0 0 0 0 0 0 0 0 0 0 0 0 127 0" result="hardAlpha"/>
<feOffset dy="4"/>
<feGaussianBlur stdDeviation="2"/>
<feComposite in2="hardAlpha" operator="out"/>
<feColorMatrix type="matrix" values="0 0 0 0 0 0 0 0 0 0 0 0 0 0 0 0 0 0 0.25 0"/>
<feBlend mode="normal" in2="BackgroundImageFix" result="effect1_dropShadow_5_78"/>
<feBlend mode="normal" in="SourceGraphic" in2="effect1_dropShadow_5_78" result="shape"/>
</filter>
<linearGradient id="paint0_linear_5_78" x1="3237.3" y1="-939.879" x2="493.904" y2="1042.39" gradientUnits="userSpaceOnUse">
<stop stop-color="#FFF6E0" stop-opacity="0.1"/>
<stop offset="1"/>
</linearGradient>
<linearGradient id="paint1_linear_5_78" x1="3237.3" y1="-939.879" x2="493.904" y2="1042.39" gradientUnits="userSpaceOnUse">
<stop stop-color="#FFF6E0" stop-opacity="0.1"/>
<stop offset="1"/>
</linearGradient>
<clipPath id="clip0_5_78">
<rect width="1300" height="834" rx="30" transform="matrix(0 1 1 0 4 0)" fill="white"/>
</clipPath>
<clipPath id="clip1_5_78">
<rect width="1300" height="834" rx="30" transform="matrix(0 1 1 0 838 0)" fill="white"/>
</clipPath>
</defs>
</svg>
