<svg width="400" height="56" viewBox="0 0 282 56" fill="none" xmlns="http://www.w3.org/2000/svg">
<path d="M26.0147 7.61719H27.2441L27.927 7.88821L28.3368 8.24958L28.8149 8.97231L29.1564 9.87572L29.293 10.5984V11.5019L29.0198 12.6763L28.61 13.4894L27.9953 14.1218L27.5172 14.3928L25.9464 14.7541L25.5366 15.1155L25.3317 15.3865H25.1951L25.0585 15.7479L24.4438 16.7416L23.8975 17.4644L23.1462 18.0968L22.3266 18.5485L21.507 18.8195L20.9606 18.9098H20.1411L18.9117 18.7292H18.1604L17.5457 19.2712L17.2726 19.6326L17.2043 19.8132V20.4456L17.2726 20.807L17.9555 20.9877H22.6681L23.7609 20.6263L24.5121 19.9939L25.0585 19.0002L25.4683 18.3678L26.2879 17.7354L26.9026 17.4644L27.8587 17.374L32.503 17.4644L33.1177 17.7354L33.3909 18.1871L33.5958 19.0002L33.6641 19.6326V20.7167L33.5275 21.7104L33.186 22.8848L32.7079 23.8786L31.9566 24.9627L31.2053 25.7758L30.9321 26.2275V29.2087L30.5907 30.2928L30.2492 30.8349L29.4296 31.4673L28.7466 31.7383H27.7904L27.0392 31.3769L26.4245 30.7445L26.0147 29.9315L25.6732 28.8474V27.6729L25.9464 26.6792L26.3562 25.9564L27.0392 25.2337L27.6538 24.8724L28.9515 24.6013L30.0443 23.8786L30.8638 23.0655L31.2053 22.7042L31.6834 21.7104L31.82 21.1684V20.1746L31.5468 19.8132L29.9077 19.7229L29.3613 19.6326H28.4734L27.4489 19.9036L26.766 20.265L25.8098 21.1684L25.1951 21.9814L24.6487 22.9752L24.1706 23.2462L23.8292 23.3366L17.2043 23.4269L16.5896 23.6979L15.2919 24.782L14.8138 24.9627L14.0625 24.8724L13.1064 24.24L12.4234 23.2462L12.0136 22.2525L11.9453 21.2587L12.1502 20.1746L12.56 19.0905L13.0381 18.3678L13.6528 18.0064L13.9943 17.9161H15.77L16.3847 17.6451L16.7262 17.2837L17.0677 16.6513L17.4091 16.4706H19.5947L20.6875 16.6513L21.7119 16.2899L22.4632 15.7479L23.3511 14.7541L23.9658 13.9411L24.2389 13.399V12.4053L24.1023 11.5922V10.2371L24.3755 9.33367L24.7853 8.5206L25.2634 7.97855L26.0147 7.61719Z" fill="white"/>
<path d="M8.06386 3.80859H8.9202L9.70518 4.08513L10.3474 4.54601L10.9183 5.37561L11.2038 6.29738L11.2751 6.66609V7.86439L10.9183 9.24705L10.4902 9.98447L10.1333 10.3532L9.49109 10.7219L9.13429 10.8141L7.56433 10.7219L6.92208 10.9984L6.06574 12.0124L5.35212 12.842L4.78123 13.4872L4.21033 14.3168L3.7108 15.6073L3.56808 16.8978V19.2022L3.7108 20.124L4.49578 20.9536L5.13804 21.8753L5.49484 22.8893L5.56621 23.258V23.9954L5.2094 25.6546V26.2998L5.56621 26.7607L6.06574 26.9451H18.4827L19.339 26.6685L19.9813 26.1155L20.4808 25.4702L21.123 24.825L21.4085 24.6406H22.6216L23.2639 24.9172L23.9775 25.4702V25.6546L24.2629 25.8389L24.7625 26.8529L24.9766 27.7747V28.6964L24.6198 29.8947L24.1202 30.8165L23.478 31.3696L22.693 31.7383H21.4798L20.6235 31.1852L19.4817 29.7104L18.9108 29.4339L9.91926 29.3417L5.2094 29.2495L4.6385 28.8808L3.78217 27.8668L2.92583 27.406L1.71268 27.0372L1.14179 26.6685L0.642254 26.0233L0.214085 25.1015L0 24.1798L0 23.258L0.214085 22.4284L0.713616 21.3223L1.42723 20.4927L1.71268 20.3083L1.78404 20.124L1.71268 18.8335L1.64132 16.9899L1.78404 15.6995L2.14085 14.409L2.71174 13.0263L3.42536 11.828L4.35306 10.7219L5.13804 9.89229L5.56621 9.24705L5.78029 8.50963L5.85165 7.31133V6.29738L6.20846 5.19125L6.70799 4.54601L7.49297 3.99295L8.06386 3.80859Z" fill="white"/>
<path d="M14.4136 0L15.1677 0.0926267L16.1276 0.741014L16.9504 1.94516L17.2932 2.4083L17.4303 2.50092L33.6795 2.50092L34.8451 2.68618L35.805 3.05668L36.4906 3.42719L37.5876 4.35346L38.4789 5.46498V5.65023H38.616L39.1645 6.5765L40.2615 7.9659L40.7415 8.61429L41.2214 9.3553L42.1127 10.5594L42.5926 11.3005L43.2783 12.412L43.6211 13.2456L43.6896 14.3571L44.3753 15.0982L44.9238 15.7465L45.4723 17.0433L45.6094 17.7843V18.5253L45.3351 19.5442L44.8552 20.4705L44.2381 21.2115L43.6896 21.4894L43.2783 21.582H42.6612L41.8385 21.3042L41.1528 20.7484L40.6729 20.0074L40.3986 19.0811L40.2615 18.2475L40.3301 17.4138L40.5358 16.4876L40.9471 15.6539L41.6328 14.8203L41.7699 14.4498V13.8014L41.2214 12.7825L36.4906 6.39125L36.0792 5.74286L35.4622 5.1871L34.8451 5.00184H19.0072L17.2932 5.09447L16.059 6.76175L15.5791 7.13226L15.0992 7.31751H14.2079L13.4537 7.03963L12.9052 6.48387L12.3567 5.65023L11.9453 4.44608V2.96406L12.2196 2.03779L12.6995 1.20415L13.248 0.55576L13.7965 0.185253L14.4136 0Z" fill="white"/>
<path d="M32.4453 7.61719H33.7812L34.4141 7.88635L35.1172 8.69382L35.6094 9.68074L35.75 10.1293V12.6415L36.0312 13.1798L36.6641 14.077L37.3672 14.9742L38 16.2303L38.2109 17.0377V24.7536L38.3516 25.7405L38.8438 26.8172L39.8984 28.163L40.1797 28.9704V29.8676L39.8984 30.8545L39.2656 32.1106L38.6328 32.8284L38.0703 33.0078H37.2969L36.1719 32.7387L35.6094 32.3798L35.0469 31.662L34.7656 30.8545L34.6953 30.3162V28.7013L34.9766 28.163L35.4688 27.5349L36.1719 26.2788L36.3828 25.3817V17.9349L36.1016 16.948L35.6797 16.0508L34.8359 15.0639L34.1328 14.5256L33.6406 14.4359L32.7266 14.5256L31.8125 14.1667L31.25 13.6284L30.7578 12.9106L30.4766 12.1032L30.4062 11.6546V10.3088L30.6172 9.41158L31.0391 8.6041L31.6719 7.97607L32.4453 7.61719Z" fill="white"/>
<path d="M14.4251 29.1992L15.3895 29.3929L16.0784 29.877L16.6294 30.5548L17.1116 31.9104L17.2494 32.7819L17.3183 34.8153L17.5249 35.2994L18.3515 35.4931H23.9311L24.8266 35.2994L25.6532 34.7185L26.1354 34.1375L26.6176 33.3629L27.2376 33.0724H28.0642L28.9597 33.4597L29.5108 33.9438L30.0618 34.8153L30.4063 35.9772V37.5265L30.0618 38.6884L29.5796 39.4631L28.6153 40.2377L28.0642 40.5282L27.2376 40.625L26.6865 40.3345L26.2732 39.9472L25.5844 38.9789L25.3088 38.4948L24.8266 38.1075L23.1045 38.0106H18.076L17.3183 37.9138L16.7672 37.6233L16.3539 37.1392L16.0095 36.5582H15.3206L14.8384 36.7519L14.0118 36.655L13.1163 36.1709L12.703 35.7836L12.4275 35.2994L12.0831 34.1375L11.9453 33.4597V32.3946L12.152 31.4263L12.5653 30.5548L13.1852 29.7802L13.943 29.296L14.4251 29.1992Z" fill="white"/>
<path d="M42.187 22.8516H43.3278L44.1834 23.125L44.8251 23.763L45.3242 24.8568L45.6094 26.0417V26.7708L45.3242 27.6823L44.8251 28.5026L44.2547 29.2318L43.6843 29.8698L43.5417 30.1432V31.3281L43.613 31.9661L43.3991 32.6042L42.8287 33.6068L42.187 34.5182H42.0444V34.7005L40.262 36.9792L39.549 37.6172L38.7647 38.0729H36.9109L36.7683 38.5286L36.3405 39.349L35.6275 40.1693L34.7719 40.625H33.8451L33.0608 40.2604L32.4191 39.7135L31.92 39.0755L31.6348 38.3464L31.4922 37.7083V36.5234L31.7061 35.612L32.1339 34.7005L32.7043 34.0625L33.346 33.6979L33.6312 33.6068H34.2728L35.3423 33.8802L35.7701 34.1536L36.1266 34.5182L36.4831 34.974V35.1563L37.4813 35.7943H38.1943L38.836 35.3385L39.549 34.5182L40.4759 33.4245L41.2601 32.2396L41.6166 31.5104L41.6879 31.237V30.1432L41.2601 29.2318L40.6185 28.2292L40.3333 27.5911L40.1194 26.5885V25.5859L40.3333 24.6745L40.6897 23.9453L41.0462 23.4896L41.6166 23.0339L42.187 22.8516Z" fill="white"/>
<path d="M19.6193 7.61719H20.488L21.212 7.88574L21.9359 8.51237V8.69141H22.0807L22.5875 9.67611L22.8047 10.3923V11.8245L22.5151 12.8092L22.0083 13.6149L21.3568 14.152L20.5604 14.5996H19.4745L18.8229 14.2415L17.8094 13.3464L17.013 12.8092L16.0719 12.4512H14.7687L13.6828 12.8988L12.9589 13.6149L12.3073 14.4206L11.8005 15.1367L11.2214 15.8529L10.8594 16.748L10.9318 17.9118L11.0042 18.5384L10.7146 19.7021L10.3526 20.4183L9.77344 21.0449L8.90469 21.4925L8.6151 21.582H7.60156L6.80521 21.224L6.22604 20.6868L5.71927 19.7917L5.50208 19.165L5.42969 18.6279V17.7327L5.57448 16.8376L5.86406 16.1214L6.22604 15.5843L7.0224 14.9577L7.52917 14.7786L9.33906 14.6891L9.77344 14.3311L11.0766 12.7197L11.5833 12.0036L12.2349 11.1979L12.9589 10.6608L13.9724 10.2132L14.4068 10.1237H15.8547L16.7234 10.2132L17.2302 9.85514L17.8818 8.87044L18.4609 8.1543L19.0401 7.79622L19.6193 7.61719Z" fill="white"/>
<path d="M30.6531 40.625H31.2059L31.8969 40.8923L32.588 41.4268L33.0717 42.0504L33.4173 42.7632L33.6246 43.7431L33.5555 44.7231V45.5249L33.7628 46.0595L34.4538 46.9504L35.0067 47.574L35.4213 48.3758L35.8359 49.8904V52.563L35.6977 55.1467L35.5595 55.6812L35.2831 55.8594H34.5229L34.1774 55.6812L34.0392 55.3248L33.9701 50.6922L33.8319 49.7122L33.4173 48.8213L32.8644 48.1976L32.1043 47.6631L31.8278 47.574L30.3075 47.4849L29.5474 47.1286L28.9945 46.5049L28.5108 45.5249L28.2344 44.545V43.3868L28.4417 42.585L29.0636 41.6941L29.6165 41.0704L30.3075 40.7141L30.6531 40.625Z" fill="white"/>
<path d="M161.561 10.1562H169.797L177.423 10.519L180.473 11.6071L182.303 14.1462L182.913 15.9598V19.2243L181.998 21.4007L181.388 21.7634L181.693 23.2143L183.523 26.4788V29.7433L182.303 32.6451L180.168 34.8214L178.338 35.5469H156.375V20.3125L156.68 19.9498L176.508 19.5871L176.203 18.1362L175.287 17.7734L156.68 17.4107L157.9 14.8717L160.646 10.519L161.561 10.1562Z" fill="white"/>
<path d="M106.887 10.1562H108.749L110.3 11.2519L112.782 15.9996L116.816 24.7646L117.126 25.495L118.367 19.6516L120.229 11.2519L122.09 10.5215L127.055 10.8867L126.744 13.8083L122.711 29.5123L120.849 34.9904L119.298 36.4512L117.436 36.8164L114.954 35.3556L111.231 28.4166L107.818 20.3821L107.198 20.0169L106.577 22.2081L103.474 28.7818L100.372 34.9904L99.1306 36.4512H96.0279L94.1663 35.3556L92.9252 31.7035L90.4431 21.1125L88.2712 11.9823L87.9609 10.8867H94.4766L95.4074 12.7127L98.1998 24.7646V25.8602H98.8203L99.1306 24.0341L101.613 17.8256L104.405 11.9823L105.956 10.5215L106.887 10.1562Z" fill="white"/>
<path d="M202.657 10.1562L205.527 10.5215L207.121 11.9823L211.904 22.5733L212.861 24.7646V25.495L213.499 25.1298L216.688 11.2519L217.007 10.8867H223.703L222.428 16.73L218.601 30.9731L217.007 34.9904L215.093 36.8164H213.18L211.267 35.3556L209.034 31.7035L204.889 22.5733L203.932 20.7473V20.0169L202.976 21.1125L198.192 31.3383L195.96 34.9904L194.684 36.4512L192.133 36.8164L190.22 35.7208L188.945 32.7991L186.712 24.3993L183.523 11.9823V10.8867L189.901 10.5215L190.858 12.3475L193.409 22.9385L194.047 25.495L198.511 15.9996L200.106 12.3475L201.7 10.5215L202.657 10.1562Z" fill="white"/>
<path d="M129.227 11.4258H154.203L153.579 13.2394L150.144 18.3175H136.407L136.72 20.4939L152.642 20.8566L152.33 22.3075L149.52 26.6602L148.583 27.0229H136.72L136.407 29.9247H153.891L153.267 31.7383L151.393 35.0028L150.457 36.4537L146.398 36.8164L129.227 36.4537V11.4258Z" fill="white"/>
<path d="M239.393 11.4258H260.613L262.173 12.1249L262.485 12.8241V16.3199L260.925 18.0678L257.804 20.8645L253.747 24.3603L250.003 27.8561L248.755 29.2544H262.797L262.485 31.0023L260.613 34.4981L259.676 35.5469H237.833L236.585 34.1486L236.273 31.0023L237.833 29.2544L242.202 25.409L245.634 21.9132L249.067 19.4661L250.315 18.767L250.627 18.0678H235.96L235.648 17.3687L238.145 13.5233L239.393 11.4258Z" fill="white"/>
<path d="M225.875 11.4258H232.391V35.5469H225.875V11.4258Z" fill="white"/>
<path d="M70.4082 13.9648H71.6719V17.6398L69.4605 19.3102L62.8264 22.317L60.931 23.3193L66.9332 26.6602L71.0401 28.9988L71.6719 29.6669V33.0078L69.7764 32.3396L60.931 28.3306L56.5082 25.992L54.2969 23.9875L54.6128 22.317L56.1923 20.9807L63.4582 17.6398L70.4082 13.9648Z" fill="white"/>
<path d="M263.883 13.9648L265.492 14.3049L274.501 19.0656L280.293 21.446L281.258 22.8062V24.5065L279.649 25.8667L274.501 28.5871L264.848 33.0078H263.883V29.6073L265.492 28.2471L271.605 25.1866L274.501 23.4863L269.674 21.106L264.205 18.3855L263.883 18.0455V13.9648Z" fill="white"/>
<path d="M86.3436 10.1562L87.9609 10.5025L87.314 12.5799L81.815 25.7369L78.2568 33.7003L76.6395 36.4702L76.316 36.8164H72.7578L73.7282 33.7003L76.6395 26.7756L80.5211 18.4659L83.4323 11.195L84.0793 10.5025L86.3436 10.1562Z" fill="white"/>
</svg>
