<svg width="85" height="85" viewBox="0 0 85 85" fill="none" xmlns="http://www.w3.org/2000/svg">
<path d="M77.2958 52.8538C72.5768 53.528 68.0824 53.9774 63.3634 53.0785C56.6219 51.7302 51.2287 48.3595 46.2849 44.0899C53.0264 44.5393 58.869 40.4944 63.1387 35.5506C68.3071 29.0338 71.2285 20.7193 69.206 12.4048C67.4083 6.33745 62.6892 -0.628776 55.723 0.0453747C52.8017 0.270092 52.1275 3.64084 52.577 6.33745C53.4758 11.7307 53.9253 16.4497 53.0264 21.8429C51.6781 28.3597 48.3073 33.5282 44.2624 38.472C44.2624 33.0787 41.7906 28.135 38.1951 24.3148C37.7457 24.0901 37.5209 23.6406 37.0715 23.1912C29.4311 16.4497 17.9706 12.4048 8.53247 17.5733C4.03814 20.2699 -1.13035 24.5395 0.217951 30.1574C0.892102 32.4046 3.5887 33.0787 5.83587 32.854C11.2291 31.9552 16.3976 31.0563 21.7908 32.1799C27.6334 33.5282 32.5772 35.7753 37.0715 39.5955C37.2962 39.8203 37.2962 40.045 37.7457 40.2697C23.3638 41.618 13.4762 57.1234 15.9481 71.0559C16.3976 73.9772 17.5211 76.4491 19.3189 78.921C22.0155 82.5164 26.5098 86.1119 31.0042 84.0895C31.2289 83.8647 31.4536 83.64 31.6783 83.4153C32.3525 82.5164 32.8019 81.3929 32.8019 80.2693C32.3525 73.9772 30.5547 67.4604 32.8019 61.1683C32.8019 60.9436 32.8019 60.4942 32.8019 60.2695C34.3749 55.3257 36.8468 50.8314 40.4423 47.0112C40.4423 53.3033 44.0377 58.9212 48.9815 62.9661C50.1051 63.865 51.2287 64.7638 52.577 65.438C57.7455 68.1346 63.1387 70.157 68.9813 69.7076C74.3745 69.2582 79.3183 66.7863 82.689 62.5167C84.262 60.4942 85.6103 58.0223 84.7115 55.3257C83.5879 52.4044 79.9924 52.1797 77.2958 52.8538Z" fill="#E17B1C"/>
</svg>
