<svg width="114" height="114" viewBox="0 0 114 114" fill="none" xmlns="http://www.w3.org/2000/svg">
<path d="M57.4823 54.797C67.5001 57.0105 77.4154 50.6839 79.6289 40.6662C81.8424 30.6484 75.5158 20.7331 65.4981 18.5196C55.4804 16.3061 45.565 22.6327 43.3515 32.6504C41.138 42.6682 47.4646 52.5835 57.4823 54.797Z" fill="#DE6A00"/>
<path d="M65.8163 77.9725C71.3348 86.6214 82.8197 89.159 91.4686 83.6405C100.117 78.1221 102.655 66.6371 97.1366 57.9883C91.6181 49.3394 80.1332 46.8017 71.4844 52.3202C62.8355 57.8387 60.2978 69.3236 65.8163 77.9725Z" fill="#DE6A00"/>
<path d="M14.5116 66.6366C20.0301 75.2854 31.515 77.8231 40.1639 72.3046C48.8128 66.7861 51.3504 55.3012 45.832 46.6523C40.3135 38.0035 28.8286 35.4658 20.1797 40.9843C11.5308 46.5028 8.99315 57.9877 14.5116 66.6366Z" fill="#DE6A00"/>
<path d="M34.496 97.9569C40.0145 106.606 51.4994 109.143 60.1483 103.625C68.7971 98.1064 71.3348 86.6215 65.8163 77.9727C60.2978 69.3238 48.8129 66.7861 40.1641 72.3046C31.5152 77.8231 28.9775 89.308 34.496 97.9569Z" fill="#DE6A00"/>
</svg>
